<svg width="26" height="26" viewBox="0 0 26 26" fill="none" xmlns="http://www.w3.org/2000/svg">
<g clip-path="url(#clip0_154_5214)">
<rect x="1" y="1" width="24" height="24" rx="12" fill="white"/>
<path d="M25.0475 6.83777L24.242 6.71421L23.4262 6.63627L22.5757 6.74372L21.7549 6.69203L21.0306 6.12522L20.158 6.35078L19.3481 6.24167L18.6078 5.76017L17.8021 5.62809L17.0231 5.3533L16.133 5.67237L15.3734 5.29422L14.6202 4.88161L13.7728 4.97265L12.9466 4.95049L12.1442 4.79187L11.3695 4.4941L10.5788 4.27313L9.77547 4.11943L8.91472 4.32683L8.12543 4.52213L7.37142 4.84459L6.54734 5.21676L6.19306 6.03681L5.94132 6.85906L5.85715 7.6787L5.54632 8.45594L5.348 9.25423L5.58019 10.1331L5.39003 10.9329L4.96016 11.6878L4.92328 12.5163L4.78041 13.325L4.55305 14.1162L4.23406 14.8919L4.34232 15.7475L4.03149 16.5247L4.0367 17.3628L4.00798 18.1928L3.5194 18.9368L3.61135 19.7894L3.56112 20.6171L3.36281 21.4154L2.84946 22.1564L3.14555 23.0455L3.09467 23.9308L3.69948 24.5772L4.3012 25.1227L4.7702 25.9627L5.62844 26.2829L6.48777 26.065L7.25369 26.3374L8.04499 26.4651L8.7839 26.8818L9.59986 26.8867L10.3916 27.0213L11.2193 26.9724L11.9729 27.3104L12.7886 27.317L13.5223 27.7616L14.3299 27.8108L15.1346 27.885L15.9688 27.8017L16.6099 28.1729L16.4728 28.9148L15.9274 29.6192L16.0053 30.5473L15.7256 31.3474L15.6653 32.1205L16.4722 32.0746L17.1169 31.5245L17.8223 31.1012L18.6241 30.7758L19.0767 30.0438L19.7037 29.4802L20.0939 28.7569L20.9576 28.6961L21.7754 28.9255L22.5957 28.7089L23.492 28.537L24.0608 27.8335L24.5823 27.1211L24.6729 26.2399L24.956 25.4574L25.0581 24.6411L25.3216 23.8551L25.233 23.0031L25.7278 22.262L25.8677 21.451L25.8866 20.6192L26.096 19.8247L26.1672 19.0026L26.2725 18.1869L26.5719 17.4075L26.6316 16.5833L26.6604 15.7533L26.9275 14.9662L26.9644 14.1377L27.3013 13.3653L27.0903 12.4905L27.4177 11.7146L27.5299 10.8985L27.7872 10.0468L27.3423 9.26735L27.1233 8.43513L26.447 7.90956L25.8437 7.28219L25.0475 6.83777Z" fill="#66E2F1"/>
<path d="M25.0475 6.83777L24.242 6.71421L23.4262 6.63627L22.5757 6.74372L21.7549 6.69203L21.0306 6.12522L20.158 6.35078L19.3481 6.24167L18.6078 5.76017L17.8021 5.62809L17.0231 5.3533L16.133 5.67237L15.3734 5.29422L14.6202 4.88161L13.7728 4.97265L12.9466 4.95049L12.1442 4.79187L11.3695 4.4941L10.5788 4.27313L9.77547 4.11943L8.91472 4.32683L8.12543 4.52213L7.37142 4.84459L6.54734 5.21676L6.19306 6.03681L5.94132 6.85906L5.85715 7.6787L5.54632 8.45594L5.348 9.25423L5.58019 10.1331L5.39003 10.9329L4.96016 11.6878L4.92328 12.5163L4.78041 13.325L4.55305 14.1162L4.23406 14.8919L4.34232 15.7475L4.03149 16.5247L4.0367 17.3628L4.00798 18.1928L3.5194 18.9368L3.61135 19.7894L3.56112 20.6171L3.36281 21.4154L2.84946 22.1564L3.14555 23.0455L3.09467 23.9308L3.69948 24.5772L4.3012 25.1227L4.7702 25.9627L5.62844 26.2829L6.48777 26.065L7.25369 26.3374L8.04499 26.4651L8.7839 26.8818L9.59986 26.8867L10.3916 27.0213L11.2193 26.9724L11.9729 27.3104L12.7886 27.317L13.5223 27.7616L14.3299 27.8108L15.1346 27.885L15.9688 27.8017L16.6099 28.1729L16.4728 28.9148L15.9274 29.6192L16.0053 30.5473L15.7256 31.3474L15.6653 32.1205L16.4722 32.0746L17.1169 31.5245L17.8223 31.1012L18.6241 30.7758L19.0767 30.0438L19.7037 29.4802L20.0939 28.7569L20.9576 28.6961L21.7754 28.9255L22.5957 28.7089L23.492 28.537L24.0608 27.8335L24.5823 27.1211L24.6729 26.2399L24.956 25.4574L25.0581 24.6411L25.3216 23.8551L25.233 23.0031L25.7278 22.262L25.8677 21.451L25.8866 20.6192L26.096 19.8247L26.1672 19.0026L26.2725 18.1869L26.5719 17.4075L26.6316 16.5833L26.6604 15.7533L26.9275 14.9662L26.9644 14.1377L27.3013 13.3653L27.0903 12.4905L27.4177 11.7146L27.5299 10.8985L27.7872 10.0468L27.3423 9.26735L27.1233 8.43513L26.447 7.90956L25.8437 7.28219L25.0475 6.83777Z" stroke="#66E2F1" stroke-width="0.243535" stroke-miterlimit="10"/>
<path d="M9.90175 11.8945C10.0535 11.9229 10.1877 12.0104 10.275 12.1378C10.3622 12.2652 10.3952 12.422 10.3669 12.5737L10.1527 13.7181C10.1243 13.8698 10.0368 14.0041 9.90945 14.0913C9.78207 14.1785 9.62526 14.2116 9.47352 14.1832C9.32177 14.1548 9.18751 14.0673 9.10028 13.9399C9.01306 13.8125 8.98002 13.6557 9.00842 13.504L9.22253 12.3596C9.25093 12.2079 9.33842 12.0736 9.4658 11.9864C9.59318 11.8992 9.75 11.8661 9.90175 11.8945Z" fill="#121212"/>
<path d="M11.6181 12.2157C11.7698 12.2441 11.9041 12.3316 11.9913 12.459C12.0785 12.5864 12.1116 12.7432 12.0832 12.8949L11.869 14.0392C11.8407 14.191 11.7531 14.3252 11.6258 14.4125C11.4984 14.4997 11.3416 14.5327 11.1898 14.5043C11.0381 14.4759 10.9038 14.3884 10.8166 14.261C10.7294 14.1337 10.6963 13.9769 10.7247 13.8251L10.9388 12.6808C10.9672 12.5291 11.0547 12.3948 11.1821 12.3076C11.3095 12.2204 11.4663 12.1873 11.6181 12.2157Z" fill="#121212"/>
</g>
<rect x="0.5" y="0.5" width="25" height="25" rx="12.5" stroke="#DDE1E8"/>
<defs>
<clipPath id="clip0_154_5214">
<rect x="1" y="1" width="24" height="24" rx="12" fill="white"/>
</clipPath>
</defs>
</svg>
