<svg width="16" height="16" viewBox="0 0 16 16" fill="none" xmlns="http://www.w3.org/2000/svg">
<path d="M12.4667 9.8C12.2778 9.98889 12.0667 10.0444 11.8333 9.96667C11.6 9.88889 11.4389 9.73889 11.35 9.51667C11.2722 9.28333 11.3333 9.06667 11.5333 8.86667L12.4333 7.96667C12.7333 7.66667 12.9556 7.33333 13.1 6.96667C13.2556 6.6 13.3333 6.2 13.3333 5.76667C13.3333 5.17778 13.2 4.65 12.9333 4.18333C12.6667 3.70555 12.2944 3.33333 11.8167 3.06667C11.35 2.8 10.8222 2.66667 10.2333 2.66667C9.8 2.66667 9.4 2.74444 9.03333 2.9C8.66667 3.04444 8.33333 3.26667 8.03333 3.56667L7.13333 4.46667C6.93333 4.66667 6.71667 4.72778 6.48333 4.65C6.26111 4.57222 6.11111 4.41667 6.03333 4.18333C5.95556 3.93889 6.01111 3.72222 6.2 3.53333L7.1 2.63333C7.51111 2.21111 7.98889 1.88889 8.53333 1.66667C9.07778 1.44444 9.64444 1.33333 10.2333 1.33333C11.0333 1.33333 11.7722 1.53333 12.45 1.93333C13.1389 2.32222 13.6778 2.86111 14.0667 3.55C14.4667 4.22778 14.6667 4.96667 14.6667 5.76667C14.6667 6.35556 14.5556 6.92222 14.3333 7.46667C14.1111 8.01111 13.7889 8.48889 13.3667 8.9L12.4667 9.8ZM5.76667 14.6667C4.96667 14.6667 4.22778 14.4667 3.55 14.0667C2.87222 13.6667 2.33333 13.1278 1.93333 12.45C1.53333 11.7722 1.33333 11.0333 1.33333 10.2333C1.33333 9.64444 1.44444 9.07778 1.66667 8.53333C1.9 7.98889 2.22222 7.51111 2.63333 7.1L3.53333 6.2C3.72222 6.01111 3.93333 5.95555 4.16667 6.03333C4.4 6.11111 4.55556 6.26667 4.63333 6.5C4.72222 6.72222 4.66667 6.93333 4.46667 7.13333L3.56667 8.03333C3.26667 8.33333 3.03889 8.66667 2.88333 9.03333C2.73889 9.38889 2.66667 9.78889 2.66667 10.2333C2.66667 10.8222 2.8 11.3556 3.06667 11.8333C3.33333 12.3 3.7 12.6667 4.16667 12.9333C4.64444 13.2 5.17778 13.3333 5.76667 13.3333C6.21111 13.3333 6.61111 13.2611 6.96667 13.1167C7.33333 12.9611 7.66667 12.7333 7.96667 12.4333L8.86667 11.5333C9.05556 11.3444 9.26667 11.2889 9.5 11.3667C9.73333 11.4444 9.88889 11.6 9.96667 11.8333C10.0556 12.0556 10 12.2667 9.8 12.4667L8.9 13.3667C8.48889 13.7778 8.01111 14.1 7.46667 14.3333C6.92222 14.5556 6.35556 14.6667 5.76667 14.6667ZM6.46667 10.4667C6.26667 10.6667 6.05 10.7278 5.81667 10.65C5.59444 10.5722 5.44444 10.4167 5.36667 10.1833C5.28889 9.93889 5.34444 9.72222 5.53333 9.53333L9.53333 5.53333C9.72222 5.34444 9.93333 5.28889 10.1667 5.36667C10.4 5.44444 10.5556 5.6 10.6333 5.83333C10.7222 6.05556 10.6667 6.26667 10.4667 6.46667L6.46667 10.4667Z" fill="#A3A8AE"/>
</svg>
