<svg width="43" height="32" viewBox="0 0 43 32" fill="none" xmlns="http://www.w3.org/2000/svg">
<g id="Group 54">
<path id="Union" fill-rule="evenodd" clip-rule="evenodd" d="M18.0477 5.1899C19.3929 5.50092 20.7355 4.66253 21.0466 3.3173C21.3576 1.97207 20.5192 0.629425 19.174 0.318408C17.3596 -0.10107 15.2728 -0.0786945 13.3432 0.225985C11.4136 0.530664 9.42143 1.15233 7.82459 2.11041C4.79392 3.92878 1.72294 7.47956 0.671321 12.2118C-0.416951 17.109 -0.0370836 21.0488 0.783971 23.7349C1.03955 24.5711 1.35138 25.3292 1.70331 25.9725C2.99834 29.3535 6.27423 31.7541 10.1108 31.7541C15.0814 31.7541 19.1108 27.7247 19.1108 22.7541C19.1108 17.7836 15.0814 13.7541 10.1108 13.7541C8.30132 13.7541 6.61654 14.2882 5.20549 15.2072C5.29055 14.5982 5.40458 13.961 5.55226 13.2965C6.27842 10.0287 8.4277 7.57948 10.397 6.3979C11.3002 5.85601 12.6378 5.39931 14.123 5.1648C15.6083 4.93029 17.0215 4.95265 18.0477 5.1899Z" fill="#546AEF"/>
<path id="Union_2" fill-rule="evenodd" clip-rule="evenodd" d="M39.0477 5.1899C40.3929 5.50092 41.7355 4.66253 42.0466 3.3173C42.3576 1.97207 41.5192 0.629425 40.174 0.318408C38.3596 -0.10107 36.2728 -0.0786945 34.3432 0.225985C32.4136 0.530664 30.4214 1.15233 28.8246 2.11041C25.7939 3.92878 22.7229 7.47956 21.6713 12.2118C20.583 17.109 20.9629 21.0488 21.784 23.7349C22.0395 24.5711 22.3514 25.3292 22.7033 25.9725C23.9983 29.3535 27.2742 31.7541 31.1108 31.7541C36.0814 31.7541 40.1108 27.7247 40.1108 22.7541C40.1108 17.7836 36.0814 13.7541 31.1108 13.7541C29.3013 13.7541 27.6165 14.2882 26.2055 15.2072C26.2905 14.5982 26.4046 13.961 26.5523 13.2965C27.2784 10.0287 29.4277 7.57948 31.397 6.3979C32.3002 5.85601 33.6378 5.39931 35.123 5.1648C36.6083 4.93029 38.0215 4.95265 39.0477 5.1899Z" fill="#546AEF"/>
</g>
</svg>
