<svg width="42" height="32" viewBox="0 0 42 32" fill="none" xmlns="http://www.w3.org/2000/svg">
<g id="Group 52">
<path id="Union" fill-rule="evenodd" clip-rule="evenodd" d="M24.0651 26.5642C22.7199 26.2532 21.3772 27.0916 21.0662 28.4368C20.7552 29.7821 21.5936 31.1247 22.9388 31.4357C24.7532 31.8552 26.8399 31.8328 28.7696 31.5282C30.6992 31.2235 32.6914 30.6018 34.2882 29.6437C37.3189 27.8254 40.3899 24.2746 41.4415 19.5423C42.5297 14.6451 42.1499 10.7054 41.3288 8.01922C41.0732 7.18309 40.7614 6.42499 40.4095 5.7817C39.1145 2.40062 35.8386 3.8147e-06 32.002 3.8147e-06C27.0314 3.8147e-06 23.002 4.02944 23.002 9C23.002 13.9706 27.0314 18 32.002 18C33.8115 18 35.4963 17.466 36.9073 16.547C36.8222 17.1559 36.7082 17.7931 36.5605 18.4577C35.8344 21.7254 33.6851 24.1747 31.7158 25.3563C30.8126 25.8981 29.475 26.3548 27.9898 26.5894C26.5045 26.8239 25.0913 26.8015 24.0651 26.5642Z" fill="#546AEF"/>
<path id="Union_2" fill-rule="evenodd" clip-rule="evenodd" d="M3.06512 26.5642C1.7199 26.2532 0.377249 27.0916 0.0662327 28.4368C-0.244785 29.7821 0.593609 31.1247 1.93884 31.4357C3.75319 31.8552 5.83995 31.8328 7.76959 31.5282C9.69922 31.2235 11.6914 30.6018 13.2882 29.6437C16.3189 27.8254 19.3899 24.2746 20.4415 19.5423C21.5297 14.6451 21.1499 10.7054 20.3288 8.01922C20.0732 7.18309 19.7614 6.42499 19.4095 5.7817C18.1145 2.40062 14.8386 3.8147e-06 11.002 3.8147e-06C6.03141 3.8147e-06 2.00197 4.02944 2.00197 9C2.00197 13.9706 6.03141 18 11.002 18C12.8115 18 14.4963 17.466 15.9073 16.547C15.8222 17.1559 15.7082 17.7931 15.5605 18.4577C14.8344 21.7254 12.6851 24.1747 10.7158 25.3563C9.8126 25.8981 8.475 26.3548 6.98977 26.5894C5.50454 26.8239 4.0913 26.8015 3.06512 26.5642Z" fill="#546AEF"/>
</g>
</svg>
